<?xml version="1.0" encoding="UTF-8" standalone="no"?>
<!DOCTYPE svg PUBLIC "-//W3C//DTD SVG 1.1//EN" "http://www.w3.org/Graphics/SVG/1.1/DTD/svg11.dtd">
<svg version="1.1" xmlns="http://www.w3.org/2000/svg" xmlns:xlink="http://www.w3.org/1999/xlink" preserveAspectRatio="xMidYMid meet" viewBox="152.1678321678321 111.12073134167618 376.0279720279723 389.31468531468556" width="372.03" height="385.31"><defs><path d="M515.2 112.12C520.72 112.12 525.2 116.6 525.2 122.12C525.2 197.18 525.2 412.37 525.2 487.44C525.2 492.96 520.72 497.44 515.2 497.44C442.79 497.44 235.57 497.44 163.17 497.44C157.64 497.44 153.17 492.96 153.17 487.44C153.17 412.37 153.17 197.18 153.17 122.12C153.17 116.6 157.64 112.12 163.17 112.12C235.57 112.12 442.79 112.12 515.2 112.12Z" id="f2zapuUB51"></path><path d="M515.8 303.78C515.8 403.55 437.15 484.55 340.28 484.55C243.41 484.55 164.76 403.55 164.76 303.78C164.76 204.01 243.41 123.01 340.28 123.01C437.15 123.01 515.8 204.01 515.8 303.78Z" id="a14IfR5zzn"></path><path d="M273.5 449.02L273.5 166.5" id="d3TSbraXVJ"></path><path d="M408.81 444.13L406.71 171.4" id="bbiMRRk24"></path><path d="M350.02 307.06L477.4 278.27" id="a1QJreBUuY"></path><path d="M322.1 307.76L194.13 286.43" id="a22mPOy2mm"></path></defs><g><g><use xlink:href="#f2zapuUB51" opacity="1" fill="#c7ea2f" fill-opacity="1"></use></g><g><use xlink:href="#a14IfR5zzn" opacity="1" fill="#184172" fill-opacity="1"></use></g><g><g><use xlink:href="#d3TSbraXVJ" opacity="1" fill-opacity="0" stroke="#fbf625" stroke-width="15" stroke-opacity="1"></use></g></g><g><g><filter id="shadow13666331" x="397.71" y="162.4" width="21.1" height="291.73" filterUnits="userSpaceOnUse" primitiveUnits="userSpaceOnUse"><feFlood></feFlood><feComposite in2="SourceAlpha" operator="in"></feComposite><feGaussianBlur stdDeviation="1"></feGaussianBlur><feOffset dx="1" dy="1" result="afterOffset"></feOffset><feFlood flood-color="#abff01" flood-opacity="0.5"></feFlood><feComposite in2="afterOffset" operator="in"></feComposite><feMorphology operator="dilate" radius="1"></feMorphology><feComposite in2="SourceAlpha" operator="out"></feComposite></filter><path d="M408.81 444.13L406.71 171.4" id="c22MQMHK9" fill="none" stroke="white" filter="url(#shadow13666331)"></path></g><use xlink:href="#bbiMRRk24" opacity="1" fill="#ff1b15" fill-opacity="1"></use><g><use xlink:href="#bbiMRRk24" opacity="1" fill-opacity="0" stroke="#eef906" stroke-width="15" stroke-opacity="1"></use></g><g></g></g><g><g><use xlink:href="#a1QJreBUuY" opacity="1" fill-opacity="0" stroke="#09f509" stroke-width="15" stroke-opacity="1"></use></g></g><g><use xlink:href="#a22mPOy2mm" opacity="1" fill="#f22fdf" fill-opacity="1"></use><g><use xlink:href="#a22mPOy2mm" opacity="1" fill-opacity="0" stroke="#ef1cb3" stroke-width="15" stroke-opacity="1"></use></g></g></g></svg>